<svg width="1024" height="1024" viewBox="0 0 1024 1024" fill="none" xmlns="http://www.w3.org/2000/svg">
<g clip-path="url(#clip0_1_2)">
<path d="M0 0H1024V1024H0V0Z" fill="#FBF6EF"/>
<path d="M364.272 406.774C377.43 405.378 401.331 406.015 414.287 407.534C442.437 410.834 467.187 426.913 484.29 449.263C476.905 453.633 469.679 458.044 463.132 463.629C443.347 480.355 431.171 504.348 429.365 530.163C428.24 545.664 427.716 583.253 431.099 597.586C443.193 648.827 498.473 684.447 548.82 659.894C558.852 655.001 564.533 649.96 572.841 642.677C549.972 701.249 491.617 722.134 444.68 756.76C407.629 784 390.479 816.433 379.582 860C363.207 838.819 352.752 820.92 355.286 793.219C357.849 765.183 370.608 748.535 391.369 731.099C342.96 692.893 348.447 643.625 381.077 596.581C379.701 595.211 378.364 593.804 377.067 592.36C361.372 575.081 353.65 553.693 355.138 530.431C356.947 502.146 370.369 484.664 390.774 466.687C387.83 458.089 383.578 442.83 375.471 439.135C358 431.175 357.682 426.666 353.841 407.398L364.272 406.774Z" fill="#AAAAAA"/>
<path d="M659.937 679.554C660.203 678.438 661.145 672.701 662.56 672.363C663.44 673.003 664.045 679.666 664.162 680.989C666.709 696.267 666.831 710.82 667.369 726.174C669.43 784.896 654.135 841.013 606.537 879.663L608.465 881.045C636.151 864.645 650.923 852.691 667.06 823.854L666.875 867.033C666.848 904.268 665.69 933.239 637.022 961.802C624.93 973.977 609.764 982.646 593.139 986.892C575.881 991.391 542.521 990.309 523.456 990.297L442.798 990.001C422.335 989.851 397.477 990.321 377.479 989.475L377.036 988.547L380.006 987.522C386.823 982.643 404.661 973.725 413.301 968.492C489.724 922.202 588.607 827.607 632.32 749.655C644.435 727.542 653.714 703.988 659.937 679.554Z" fill="#AAAAAA"/>
<path d="M659.937 679.554C660.203 678.438 661.145 672.701 662.561 672.363C663.44 673.003 664.045 679.666 664.162 680.989C661.984 681.779 662.02 680.846 659.937 679.554Z" fill="#AAAAAA"/>
<path d="M596.841 887C600.132 884.632 603.389 882.182 606.832 880L608.841 881.287C605.174 883.468 600.827 885.317 596.841 887Z" fill="#D0D0D0"/>
<path d="M957.36 28.7892C961.891 28.0413 972.808 24.1325 965.243 30.9676C964.973 31.7725 964.891 31.7191 964.197 32.2792C962.928 34.106 961.631 35.9122 960.306 37.6994L956.548 36.2C950.748 39.0057 944.927 42.1682 939.096 44.8637L938.239 42.4061L638.632 170.443L491.02 234.146C459.156 248.325 427.181 262.245 395.094 275.903C391.763 258.778 391.838 239.83 391.143 222.389C390.731 212.036 392.843 193.249 386.504 185.051C377.756 173.737 361.272 168.766 349.809 179.7C323.006 205.265 306.106 243.317 302.312 280C231.693 260.524 159.937 244.101 89.1113 225.286C78.07 222.355 66.7086 219.914 55.841 216.423C92.3297 207.867 129.587 201.217 166.253 193.691L401.356 145.283L957.36 28.7892Z" fill="#D0D0D0"/>
<path d="M957.219 28.8029C961.811 28.0492 972.875 24.1106 965.208 30.9979C964.935 31.8089 964.851 31.7551 964.148 32.3195C962.862 34.1602 961.547 35.9802 960.205 37.781L956.396 36.2702C950.518 39.0974 944.619 42.284 938.709 45L937.841 42.5236C942.563 39.9153 950.999 36.1209 956.117 34.0439C957.892 31.4234 957.909 31.9548 957.219 28.8029Z" fill="#D0D0D0"/>
<path d="M956.969 29.0476C961.669 28.1916 972.994 23.7184 965.146 31.5406C961.422 31.7319 959.449 33.363 955.841 35C957.657 32.0238 957.675 32.6273 956.969 29.0476Z" fill="#D0D0D0"/>
<path d="M956.841 35.6169C959.35 34.1892 961.258 33.2353 963.841 32C962.679 33.6852 961.492 35.3514 960.28 37L956.841 35.6169Z" fill="#D0D0D0"/>
<path d="M956.073 36L959.841 37.495C898.008 117.157 837.799 198.059 779.252 280.152C752.502 317.527 727.407 355.655 698.895 391.807C688.258 405.296 679.439 419.978 667.852 433C672.988 413.03 674.109 405.839 663.841 387.315L664.519 386.435C672.253 376.576 681.55 368.127 689.334 358.14C726.114 310.951 729.656 218.296 680.179 178.244C700.423 169.013 720.996 156.791 740.952 146.417L831.391 99.7406C864.968 82.0135 904.525 60.4717 938.576 44.6384C944.422 41.9508 950.258 38.7976 956.073 36Z" fill="#D0D0D0"/>
<path d="M633.326 204L634.943 204.341C636.62 209.981 638.824 253.802 637.365 261.667C631.921 291.033 620.463 313.654 596.711 331.607C547.107 312.399 487.281 308.784 437.591 329.833C435.025 331.136 434.391 331.626 431.471 332C425.148 330.168 420.944 322.723 416.841 317.166L573.166 234.849C593.128 224.578 613.07 213.652 633.326 204Z" fill="#D0D0D0"/>
<path d="M365.509 198C367.58 201.435 366.697 230.83 366.612 237.517C366.095 278.802 383.409 335.55 422.841 357.263C404.287 363.646 393.479 369.432 378.726 382.239C376.284 384.159 377.585 383.864 374.944 384C367.164 379.348 358.595 367.342 352.329 360.453C308.082 311.805 317.603 241.385 365.509 198Z" fill="#AAAAAA"/>
<path d="M662.85 196C664.471 196.348 667.047 196.972 668.391 198.074C681.788 209.058 690.357 232.53 693.594 248.767C700.673 284.276 690.779 323.886 667.378 351.145C661.344 358.173 651.336 365.311 645.927 373.083C644.703 374.841 645.782 377.677 646.247 380L645.086 379.457L645.76 378.978C643.659 378.602 644.607 379.056 643.109 377.112C635.508 368.644 614.584 360.825 603.841 358.288C610.979 354.137 617.559 349.055 623.408 343.167C662.551 303.803 662.66 247.468 662.85 196Z" fill="#AAAAAA"/>
<path d="M622.012 406.104C634.264 405.626 656.729 406.874 668.841 408.324C661.125 440.913 648.098 430.075 641.19 444.348C629.766 467.945 635.65 490.344 596.143 483.868C576.247 478.538 560.731 466.996 548.841 450.257C558.261 419.541 593.356 407.912 622.012 406.104Z" fill="#AAAAAA"/>
<path d="M655.455 480.668C655.371 478.75 654.965 462.818 655.928 462.202C656.26 462.257 656.098 462.197 656.408 462.393C657.041 463.539 657.134 463.933 657.451 465.301C664.907 489.629 663.154 525.076 639.761 540.639C637.063 542.433 633.422 544.14 630.499 545.716C633.009 541.68 636.122 538.791 638.713 534.924C649.418 518.942 654.906 499.795 655.455 480.668Z" fill="#AAAAAA"/>
<path d="M655.455 480.668C655.37 478.75 654.965 462.818 655.928 462.202C656.26 462.257 656.098 462.197 656.408 462.393C657.041 463.539 657.134 463.933 657.451 465.301C655.555 469.127 656.41 475.041 655.455 480.668Z" fill="#AAAAAA"/>
<path d="M656.214 552.251L660.919 553.789C670.174 586.815 669.303 633.86 652.081 664.331C639.711 686.217 624.701 697.831 603.582 710.013L602.294 705.027C639.14 658.965 647.308 608.115 656.214 552.251Z" fill="#AAAAAA"/>
<path d="M592.62 715.269C595.882 711.681 599.058 708.795 602.294 705.027L603.582 710.013C599.682 712.238 596.721 713.552 592.62 715.269Z" fill="#AAAAAA"/>
<path d="M656.214 552.251C656.296 550.694 656.141 547.227 657.186 545.79C657.592 545.231 658.361 546.812 658.449 547.048C659.288 549.279 660.056 551.555 660.919 553.789L656.214 552.251Z" fill="#AAAAAA"/>
<path d="M352.902 990.256C351.67 953.529 354.273 917.443 373.031 884.981C401.02 836.543 435.715 825.375 485.253 811.233L487.574 813.504C479.202 817.411 467.79 825.647 460.031 831.161C420.043 859.153 393.488 896.708 373.322 940.603C366.927 954.525 360.255 978.329 352.902 990.256Z" fill="#AAAAAA"/>
<path d="M485.253 811.233C486.604 811.025 491.144 809.881 492.316 810.39L492.426 810.531C492.248 811.052 491.774 811.202 491.3 811.565L491.751 811.245C490.284 812.086 489.096 812.754 487.574 813.504L485.253 811.233Z" fill="#AAAAAA"/>
<path d="M470.832 501.693C481.709 511.15 502.067 525.518 514.204 534.624C529.349 524.043 543.498 512.373 558.437 501.503C562.59 511.701 567.212 519.835 572.478 529.502C559.824 534.652 541.258 544.4 528.8 550.743C527.042 559.896 523.933 577.795 525.122 586.755C528.368 611.239 556.092 615.184 569.942 595.177C572.729 594.734 573.087 594.635 573.517 597.52C551.968 658.065 484.971 663.567 458.391 605.14C457.552 603.282 456.724 601.418 455.907 599.548C457.078 598.206 457.901 597.177 458.964 595.772C466.197 604.904 471.623 608.347 483.713 606.995C512.146 603.817 502.934 569.719 499.867 550.478C485.68 542.535 469.922 537.482 455.065 528.692C458.389 521.626 466.553 508.891 470.832 501.693Z" fill="#777777"/>
<path d="M576.397 580.119C575.864 587.137 575.184 590.72 573.517 597.52C573.087 594.635 572.729 594.734 569.942 595.177C572.213 590.469 573.696 586.426 574.391 581.248L576.397 580.119Z" fill="#777777"/>
<path d="M454.171 585.002C455.723 589.139 456.868 591.854 458.964 595.772C457.901 597.177 457.078 598.206 455.907 599.548C455.406 597.73 454.726 595.994 454.202 594.172C453.675 592.379 453.185 590.576 452.732 588.763L454.171 585.002Z" fill="#777777"/>
<path d="M451.881 581.428C451.497 579.851 451.127 573.454 452.036 572.489C453.438 572.934 453.6 579.558 453.732 580.767C452.942 580.953 452.621 581.122 451.881 581.428Z" fill="#777777"/>
<path d="M451.881 581.428C452.621 581.122 452.942 580.953 453.732 580.767C453.973 582.412 454.098 583.36 454.171 585.002L452.732 588.763C452.373 586.289 452.149 583.909 451.881 581.428Z" fill="#777777"/>
<path d="M574.391 581.248C574.56 580.028 574.94 576.8 575.74 575.926C576.303 576.379 576.332 579.414 576.397 580.119L574.391 581.248Z" fill="#777777"/>
</g>
<defs>
<clipPath id="clip0_1_2">
<rect width="1024" height="1024" fill="white"/>
</clipPath>
</defs>
</svg>
